<svg width="136" height="40" viewBox="0 0 136 40" fill="none" xmlns="http://www.w3.org/2000/svg">
<path d="M1.45947 18.1166C1.45947 14.7788 2.78539 11.5778 5.14553 9.21767C7.50567 6.85753 10.7067 5.53162 14.0444 5.53162C17.3822 5.53162 20.5832 6.85753 22.9434 9.21767C25.3035 11.5778 26.6294 14.7788 26.6294 18.1166H24.5635C24.5635 15.3267 23.4553 12.6512 21.4826 10.6785C19.5099 8.70574 16.8343 7.59748 14.0444 7.59748C11.2546 7.59748 8.57903 8.70574 6.60631 10.6785C4.6336 12.6512 3.52534 15.3267 3.52534 18.1166H1.45947Z" fill="#007908"/>
<path d="M13.3701 22.0103C13.3701 25.348 14.696 28.5491 17.0561 30.9092C19.4163 33.2693 22.6173 34.5953 25.955 34.5953C29.2928 34.5953 32.4938 33.2693 34.854 30.9092C37.2141 28.5491 38.54 25.348 38.54 22.0103H36.4742C36.4742 24.8001 35.3659 27.4757 33.3932 29.4484C31.4205 31.4211 28.7449 32.5294 25.955 32.5294C23.1652 32.5294 20.4896 31.4211 18.5169 29.4484C16.5442 27.4757 15.4359 24.8001 15.4359 22.0103H13.3701Z" fill="#007908"/>
<path d="M35.0146 22.01C35.0148 21.2042 35.6682 20.5506 36.474 20.5506H38.5406C38.9274 20.5507 39.2989 20.7046 39.5724 20.9781C39.846 21.2517 39.9999 21.6231 40 22.01C40 25.7348 38.5192 29.307 35.8854 31.9409C33.2516 34.5747 29.6793 36.0554 25.9545 36.0554C22.2299 36.0553 18.6574 34.5746 16.0237 31.9409C13.3901 29.3071 11.9105 25.7346 11.9105 22.01C11.9107 21.2042 12.5641 20.5506 13.3699 20.5506H15.4365C15.8233 20.5507 16.1948 20.7046 16.4683 20.9781C16.7419 21.2517 16.8958 21.6231 16.8959 22.01C16.8959 24.4126 17.8494 26.7173 19.5482 28.4163C21.2471 30.1152 23.5519 31.0699 25.9545 31.0701V32.5295L25.4329 32.5166C22.8331 32.3876 20.3657 31.2975 18.5164 29.4482C16.5439 27.4755 15.4365 24.7996 15.4365 22.01H13.3699C13.3699 25.3475 14.6956 28.5489 17.0555 30.909C19.268 33.1215 22.22 34.4259 25.3303 34.5804L25.9545 34.596C29.2923 34.596 32.4934 33.2691 34.8536 30.909C37.2137 28.5489 38.5406 25.3477 38.5406 22.01H36.474C36.474 24.7998 35.3654 27.4754 33.3927 29.4482C31.42 31.4208 28.7444 32.5295 25.9545 32.5295V31.0701C28.3573 31.0701 30.6618 30.1153 32.3609 28.4163C34.0599 26.7173 35.0146 24.4128 35.0146 22.01ZM14.044 4.07227C17.7687 4.07227 21.3411 5.55181 23.9749 8.18543C26.6087 10.8192 28.088 14.3916 28.0881 18.1163C28.0881 18.9223 27.4347 19.5757 26.6287 19.5757H24.5635C24.1765 19.5757 23.8054 19.4219 23.5317 19.1482C23.2581 18.8745 23.1041 18.5033 23.1041 18.1163C23.104 15.7137 22.1493 13.4089 20.4504 11.71C18.7514 10.0112 16.4467 9.05766 14.044 9.05766C11.6414 9.05775 9.33665 10.011 7.63771 11.71C5.93877 13.4089 4.98548 15.7137 4.98539 18.1163C4.98539 18.9221 4.33167 19.5753 3.52597 19.5757H1.45942C1.07236 19.5757 0.701257 19.4219 0.427564 19.1482C0.153978 18.8745 -5.07463e-08 18.5033 0 18.1163C9.18475e-05 14.3916 1.47941 10.8192 4.11316 8.18543C6.74691 5.55168 10.3194 4.07236 14.044 4.07227ZM26.6287 18.1163C26.6286 14.7787 25.3031 11.5773 22.9431 9.21728C20.583 6.85736 17.3816 5.53168 14.044 5.53168C10.7064 5.53177 7.50507 6.85722 5.14501 9.21728C2.78496 11.5773 1.45951 14.7787 1.45942 18.1163H3.52597C3.52607 15.3266 4.63322 12.6508 6.60586 10.6781C8.57849 8.70549 11.2543 7.59833 14.044 7.59824L14.5657 7.61107C17.1655 7.73997 19.6328 8.82884 21.4822 10.6781C23.4549 12.6508 24.5634 15.3266 24.5635 18.1163H26.6287Z" fill="#007908"/>
<path d="M18.1167 13.3701C14.779 13.3701 11.5779 14.6961 9.21779 17.0562C6.85765 19.4163 5.53174 22.6174 5.53174 25.9551C5.53174 29.2928 6.85765 32.4939 9.21779 34.854C11.5779 37.2142 14.779 38.5401 18.1167 38.5401V36.4742C15.3269 36.4742 12.6513 35.3659 10.6786 33.3932C8.70586 31.4205 7.5976 28.7449 7.5976 25.9551C7.5976 23.1653 8.70586 20.4897 10.6786 18.517C12.6513 16.5443 15.3269 15.436 18.1167 15.436V13.3701Z" fill="white"/>
<path d="M22.0103 1.45959C25.3481 1.4596 28.5491 2.78551 30.9093 5.14565C33.2694 7.50579 34.5953 10.7068 34.5953 14.0446C34.5953 17.3823 33.2694 20.5833 30.9093 22.9435C28.5491 25.3036 25.3481 26.6295 22.0103 26.6295V24.5637C24.8002 24.5637 27.4758 23.4554 29.4485 21.4827C31.4212 19.51 32.5294 16.8344 32.5294 14.0446C32.5294 11.2547 31.4212 8.57915 29.4485 6.60643C27.4758 4.63372 24.8002 3.52546 22.0103 3.52546V1.45959Z" fill="white"/>
<path d="M18.1163 13.3699C14.7787 13.37 11.5773 14.6955 9.21728 17.0555C6.85723 19.4156 5.53179 22.6169 5.53168 25.9545C5.53168 29.2921 6.85737 32.4935 9.21728 34.8536C11.4298 37.0661 14.3817 38.3705 17.4921 38.5249L18.1163 38.5406V36.474C15.3266 36.4739 12.6508 35.3653 10.6781 33.3927C8.82885 31.5433 7.73996 29.076 7.61107 26.4762L7.59824 25.9545C7.59834 23.1648 8.7055 20.489 10.6781 18.5164C12.6508 16.5437 15.3266 15.4366 18.1163 15.4365V13.3699ZM20.5506 1.45942C20.5506 1.07243 20.7045 0.701243 20.9781 0.427564C21.2518 0.153942 21.623 8.06998e-05 22.01 0C25.7346 4.88429e-07 29.3071 1.47953 31.9409 4.11316C34.5746 6.74691 36.0539 10.3194 36.054 14.044C36.054 17.7688 34.5747 21.3411 31.9409 23.9749C29.307 26.6087 25.7348 28.0881 22.01 28.0881C21.2041 28.0879 20.5506 27.4346 20.5506 26.6287V24.5635C20.5506 24.1765 20.7045 23.8054 20.9781 23.5317C21.2518 23.2581 21.623 23.1042 22.01 23.1041C24.4128 23.1041 26.7173 22.1494 28.4163 20.4504C30.1153 18.7513 31.0701 16.4468 31.0701 14.044C31.07 11.6414 30.1152 9.33665 28.4163 7.63771C26.7173 5.93889 24.4126 4.98539 22.01 4.98539C21.2043 4.98523 20.5509 4.33157 20.5506 3.52597V1.45942ZM19.5757 15.4365C19.5756 15.8233 19.4217 16.1948 19.1482 16.4683C18.8745 16.7417 18.5031 16.8959 18.1163 16.8959C15.7137 16.896 13.4089 17.8493 11.71 19.5482C10.011 21.2471 9.05776 23.5519 9.05766 25.9545C9.05766 28.3571 10.0112 30.6619 11.71 32.3609C13.4089 34.0598 15.7137 35.0145 18.1163 35.0146C18.9223 35.0146 19.5757 35.668 19.5757 36.474V38.5406C19.5755 38.9274 19.4217 39.2989 19.1482 39.5724C18.8745 39.8458 18.5031 40 18.1163 40C14.3916 39.9999 10.8192 38.5192 8.18543 35.8854C5.55183 33.2516 4.07227 29.6792 4.07227 25.9545C4.07237 22.2299 5.55169 18.6574 8.18543 16.0237C10.8192 13.3899 14.3916 11.9106 18.1163 11.9105C18.9223 11.9105 19.5757 12.5639 19.5757 13.3699V15.4365ZM22.5316 3.5388C25.1315 3.66772 27.5987 4.75657 29.4482 6.60586C31.4208 8.57849 32.5294 11.2543 32.5295 14.044L32.5166 14.5657C32.3877 17.1657 31.2977 19.6327 29.4482 21.4822C27.4754 23.4549 24.7998 24.5635 22.01 24.5635V26.6287C25.3477 26.6287 28.5489 25.3032 30.909 22.9431C33.2691 20.5829 34.5946 17.3818 34.5946 14.044C34.5945 10.7064 33.2691 7.50507 30.909 5.14501C28.5489 2.78508 25.3476 1.45942 22.01 1.45942V3.52597L22.5316 3.5388Z" fill="white"/>
<path d="M61.9176 17.1562H58.1847C58.1165 16.6733 57.9773 16.2443 57.767 15.8693C57.5568 15.4886 57.2869 15.1648 56.9574 14.8977C56.6278 14.6307 56.2472 14.4261 55.8153 14.2841C55.3892 14.142 54.9261 14.071 54.4261 14.071C53.5227 14.071 52.7358 14.2955 52.0653 14.7443C51.3949 15.1875 50.875 15.8352 50.5057 16.6875C50.1364 17.5341 49.9517 18.5625 49.9517 19.7727C49.9517 21.017 50.1364 22.0625 50.5057 22.9091C50.8807 23.7557 51.4034 24.3949 52.0739 24.8267C52.7443 25.2585 53.5199 25.4744 54.4006 25.4744C54.8949 25.4744 55.3523 25.4091 55.7727 25.2784C56.1989 25.1477 56.5767 24.9574 56.9062 24.7074C57.2358 24.4517 57.5085 24.142 57.7244 23.7784C57.946 23.4148 58.0994 23 58.1847 22.5341L61.9176 22.5511C61.821 23.3523 61.5795 24.125 61.1932 24.8693C60.8125 25.608 60.2983 26.2699 59.6506 26.8551C59.0085 27.4347 58.2415 27.8949 57.3494 28.2358C56.4631 28.571 55.4602 28.7386 54.3409 28.7386C52.7841 28.7386 51.392 28.3864 50.1648 27.6818C48.9432 26.9773 47.9773 25.9574 47.267 24.6222C46.5625 23.2869 46.2102 21.6705 46.2102 19.7727C46.2102 17.8693 46.5682 16.25 47.2841 14.9148C48 13.5795 48.9716 12.5625 50.1989 11.8636C51.4261 11.1591 52.8068 10.8068 54.3409 10.8068C55.3523 10.8068 56.2898 10.9489 57.1534 11.233C58.0227 11.517 58.7926 11.9318 59.4631 12.4773C60.1335 13.017 60.679 13.679 61.0994 14.4631C61.5256 15.2472 61.7983 16.1449 61.9176 17.1562ZM66.9013 33.4091C66.4411 33.4091 66.0092 33.3722 65.6058 33.2983C65.2081 33.2301 64.8786 33.142 64.6172 33.0341L65.4354 30.3239C65.8615 30.4545 66.245 30.5256 66.5859 30.5369C66.9325 30.5483 67.2308 30.4688 67.4808 30.2983C67.7365 30.1278 67.9439 29.8381 68.103 29.429L68.3161 28.875L63.62 15.4091H67.4382L70.1484 25.0227H70.2848L73.0206 15.4091H76.8643L71.7763 29.9148C71.532 30.6193 71.1996 31.233 70.7791 31.7557C70.3643 32.2841 69.8388 32.6903 69.2024 32.9744C68.5661 33.2642 67.799 33.4091 66.9013 33.4091ZM84.2152 28.7557C82.8743 28.7557 81.7209 28.4716 80.755 27.9034C79.7947 27.3295 79.0561 26.5341 78.5391 25.517C78.0277 24.5 77.772 23.3295 77.772 22.0057C77.772 20.6648 78.0305 19.4886 78.5476 18.4773C79.0703 17.4602 79.8118 16.6676 80.772 16.0994C81.7322 15.5256 82.8743 15.2386 84.1982 15.2386C85.3402 15.2386 86.3402 15.446 87.1982 15.8608C88.0561 16.2756 88.7351 16.858 89.2351 17.608C89.7351 18.358 90.0107 19.2386 90.0618 20.25H86.6357C86.5391 19.5966 86.2834 19.071 85.8686 18.6733C85.4595 18.2699 84.9226 18.0682 84.2578 18.0682C83.6953 18.0682 83.2038 18.2216 82.7834 18.5284C82.3686 18.8295 82.0447 19.2699 81.8118 19.8494C81.5788 20.429 81.4624 21.1307 81.4624 21.9545C81.4624 22.7898 81.576 23.5 81.8033 24.0852C82.0362 24.6705 82.3629 25.1165 82.7834 25.4233C83.2038 25.7301 83.6953 25.8835 84.2578 25.8835C84.6726 25.8835 85.0447 25.7983 85.3743 25.6278C85.7095 25.4574 85.9851 25.2102 86.201 24.8864C86.4226 24.5568 86.5675 24.1619 86.6357 23.7017H90.0618C90.005 24.7017 89.7322 25.5824 89.2436 26.3438C88.7607 27.0994 88.093 27.6903 87.2408 28.1165C86.3885 28.5426 85.38 28.7557 84.2152 28.7557ZM96.017 11.0455V28.5H92.3864V11.0455H96.017ZM104.891 28.7557C103.545 28.7557 102.386 28.483 101.414 27.9375C100.448 27.3864 99.7038 26.608 99.1811 25.6023C98.6584 24.5909 98.397 23.3949 98.397 22.0142C98.397 20.6676 98.6584 19.4858 99.1811 18.4688C99.7038 17.4517 100.44 16.6591 101.388 16.0909C102.343 15.5227 103.462 15.2386 104.746 15.2386C105.61 15.2386 106.414 15.3778 107.158 15.6562C107.908 15.929 108.562 16.3409 109.119 16.892C109.681 17.4432 110.119 18.1364 110.431 18.9716C110.744 19.8011 110.9 20.7727 110.9 21.8864V22.8835H99.8459V20.6335H107.482C107.482 20.1108 107.369 19.6477 107.141 19.2443C106.914 18.8409 106.599 18.5256 106.195 18.2983C105.798 18.0653 105.335 17.9489 104.806 17.9489C104.255 17.9489 103.766 18.0767 103.34 18.3324C102.92 18.5824 102.59 18.9205 102.352 19.3466C102.113 19.767 101.991 20.2358 101.985 20.7528V22.892C101.985 23.5398 102.104 24.0994 102.343 24.571C102.587 25.0426 102.931 25.4062 103.374 25.6619C103.817 25.9176 104.343 26.0455 104.951 26.0455C105.354 26.0455 105.724 25.9886 106.059 25.875C106.394 25.7614 106.681 25.5909 106.92 25.3636C107.158 25.1364 107.34 24.858 107.465 24.5284L110.823 24.75C110.653 25.5568 110.303 26.2614 109.775 26.8636C109.252 27.4602 108.576 27.9261 107.746 28.2614C106.923 28.5909 105.971 28.7557 104.891 28.7557Z" fill="white"/>
<path d="M120.309 15.4091V18.1364H112.229V15.4091H120.309ZM114.079 28.5V14.4631C114.079 13.5142 114.263 12.7273 114.633 12.1023C115.008 11.4773 115.519 11.0085 116.167 10.696C116.815 10.3835 117.55 10.2273 118.374 10.2273C118.931 10.2273 119.44 10.2699 119.9 10.3551C120.366 10.4403 120.712 10.517 120.94 10.5852L120.292 13.3125C120.15 13.267 119.974 13.2244 119.763 13.1847C119.559 13.1449 119.349 13.125 119.133 13.125C118.599 13.125 118.227 13.25 118.016 13.5C117.806 13.7443 117.701 14.0881 117.701 14.5312V28.5H114.079ZM124.768 33.4091C124.308 33.4091 123.876 33.3722 123.473 33.2983C123.075 33.2301 122.746 33.142 122.484 33.0341L123.303 30.3239C123.729 30.4545 124.112 30.5256 124.453 30.5369C124.8 30.5483 125.098 30.4688 125.348 30.2983C125.604 30.1278 125.811 29.8381 125.97 29.429L126.183 28.875L121.487 15.4091H125.305L128.016 25.0227H128.152L130.888 15.4091H134.732L129.643 29.9148C129.399 30.6193 129.067 31.233 128.646 31.7557C128.232 32.2841 127.706 32.6903 127.07 32.9744C126.433 33.2642 125.666 33.4091 124.768 33.4091Z" fill="#007908"/>
</svg>
